<?xml version="1.0" encoding="UTF-8"?>
<svg xmlns="http://www.w3.org/2000/svg" xmlns:xlink="http://www.w3.org/1999/xlink" width="46pt" height="46pt" viewBox="0 0 46 46" version="1.1">
<g id="surface629803">
<path style=" stroke:none;fill-rule:nonzero;fill:rgb(30.980392%,50.588235%,74.117647%);fill-opacity:1;" d="M 27.476562 2.765625 C 27.378906 2.78125 27.285156 2.808594 27.191406 2.851562 C 26.398438 3.246094 25.5 4.410156 25.328125 4.640625 C 25.316406 4.652344 25.308594 4.667969 25.300781 4.683594 C 24.414062 6.011719 23.9375 7.570312 23.921875 9.1875 C 23.910156 10.402344 24.144531 11.609375 24.628906 12.769531 C 25.75 15.460938 28.078125 17.6875 30.847656 18.730469 C 30.941406 18.761719 31.03125 18.796875 31.195312 18.851562 C 31.207031 18.859375 31.34375 18.902344 31.367188 18.90625 L 31.46875 18.941406 C 31.609375 18.988281 31.757812 19.035156 31.902344 19.066406 C 32.632812 19.210938 33.34375 19.292969 34.011719 19.316406 C 34.125 19.316406 34.242188 19.320312 34.355469 19.320312 C 39.398438 19.320312 41.351562 15.761719 42.003906 14.578125 C 42.070312 14.460938 42.113281 14.367188 42.160156 14.308594 C 42.160156 14.308594 42.160156 14.308594 42.160156 14.304688 C 42.445312 13.882812 42.339844 13.3125 41.917969 13.023438 C 41.5 12.738281 40.929688 12.847656 40.640625 13.269531 L 40.636719 13.269531 C 39.292969 15.25 36.992188 15.847656 33.804688 15.058594 C 33.570312 15 33.308594 14.910156 33.082031 14.824219 C 32.777344 14.714844 32.476562 14.589844 32.195312 14.453125 C 31.640625 14.175781 31.113281 13.847656 30.640625 13.480469 C 27.835938 11.304688 26.742188 6.78125 28.378906 4.167969 C 28.597656 3.820312 28.558594 3.367188 28.28125 3.0625 C 28.074219 2.832031 27.773438 2.726562 27.476562 2.765625 Z M 19.328125 4.601562 C 19.117188 4.597656 18.90625 4.664062 18.734375 4.808594 C 17.34375 5.941406 15.921875 7.792969 15.859375 7.871094 C 15.851562 7.882812 15.84375 7.894531 15.835938 7.910156 C 13.320312 11.570312 13.128906 16.78125 15.351562 21.183594 C 15.699219 21.882812 16.097656 22.546875 16.515625 23.15625 L 16.644531 23.335938 C 17 23.859375 17.398438 24.449219 17.90625 24.910156 C 18.082031 25.109375 18.273438 25.304688 18.460938 25.492188 L 18.550781 25.582031 L 18.625 25.660156 C 18.816406 25.84375 19.011719 26.03125 19.210938 26.210938 L 19.214844 26.210938 C 19.230469 26.230469 19.25 26.246094 19.269531 26.261719 C 19.496094 26.464844 19.726562 26.65625 20.03125 26.894531 L 20.113281 26.957031 C 20.351562 27.148438 20.59375 27.328125 20.839844 27.503906 C 20.867188 27.519531 20.890625 27.539062 20.914062 27.558594 C 21 27.613281 21.089844 27.667969 21.175781 27.730469 L 21.261719 27.785156 L 21.359375 27.851562 C 21.542969 27.972656 21.722656 28.085938 21.980469 28.234375 C 22.144531 28.332031 22.320312 28.433594 22.4375 28.492188 C 22.484375 28.519531 22.539062 28.546875 22.664062 28.617188 L 22.945312 28.765625 C 22.960938 28.773438 23.023438 28.800781 23.039062 28.808594 C 23.222656 28.902344 23.414062 28.992188 23.605469 29.078125 L 23.894531 29.207031 C 24.085938 29.289062 24.28125 29.367188 24.515625 29.457031 L 24.625 29.496094 C 24.632812 29.503906 24.722656 29.535156 24.730469 29.539062 C 24.902344 29.601562 25.078125 29.664062 25.253906 29.71875 L 25.65625 29.851562 C 25.855469 29.921875 26.089844 30 26.347656 30.042969 C 27.601562 30.253906 28.816406 30.359375 29.972656 30.359375 C 30.109375 30.359375 30.246094 30.355469 30.378906 30.355469 C 40.535156 30.132812 43.175781 21.503906 43.199219 21.417969 C 43.328125 20.984375 43.121094 20.519531 42.710938 20.328125 C 42.300781 20.132812 41.8125 20.269531 41.558594 20.640625 C 38.984375 24.402344 34.117188 25.988281 29.164062 24.683594 C 28.933594 24.625 28.710938 24.558594 28.433594 24.46875 C 28.386719 24.457031 28.347656 24.441406 28.273438 24.414062 C 28.109375 24.363281 27.953125 24.308594 27.773438 24.238281 L 27.515625 24.144531 C 27.371094 24.085938 27.222656 24.027344 27.042969 23.949219 L 26.925781 23.894531 C 26.707031 23.800781 26.492188 23.695312 26.300781 23.605469 L 25.777344 23.332031 C 25.660156 23.273438 25.554688 23.207031 25.394531 23.113281 L 25.304688 23.0625 L 25.214844 23.007812 C 25.082031 22.929688 24.949219 22.84375 24.824219 22.757812 L 24.738281 22.707031 C 24.730469 22.703125 24.660156 22.652344 24.652344 22.644531 C 24.546875 22.574219 24.441406 22.507812 24.339844 22.441406 C 24.117188 22.285156 23.898438 22.121094 23.644531 21.917969 L 23.542969 21.835938 C 21.171875 19.941406 19.417969 17.410156 18.59375 14.699219 C 17.828125 12.207031 18.394531 8.949219 20.113281 5.980469 C 20.335938 5.59375 20.253906 5.105469 19.914062 4.820312 C 19.742188 4.675781 19.535156 4.601562 19.328125 4.601562 Z M 9.203125 7.359375 C 8.984375 7.359375 8.761719 7.4375 8.585938 7.597656 C 6.828125 9.175781 5.511719 11.21875 5.367188 11.453125 C 1.609375 16.925781 2.335938 25.433594 4.917969 30.632812 C 4.964844 30.742188 5.019531 30.84375 5.074219 30.949219 L 5.109375 31.007812 C 5.15625 31.109375 5.210938 31.21875 5.230469 31.242188 C 5.257812 31.308594 5.300781 31.382812 5.320312 31.40625 C 5.363281 31.496094 5.40625 31.574219 5.484375 31.710938 L 5.777344 32.21875 C 5.820312 32.285156 5.863281 32.359375 5.878906 32.382812 C 5.9375 32.476562 5.996094 32.574219 6.058594 32.671875 L 6.203125 32.902344 C 6.246094 32.96875 6.289062 33.03125 6.316406 33.066406 C 6.460938 33.289062 6.605469 33.511719 6.761719 33.722656 C 6.769531 33.734375 6.777344 33.742188 6.785156 33.75 L 6.84375 33.828125 C 6.972656 34.015625 7.105469 34.195312 7.222656 34.34375 L 7.75 35.007812 C 7.753906 35.015625 7.8125 35.082031 7.816406 35.089844 L 7.890625 35.175781 C 8.050781 35.371094 8.21875 35.5625 8.386719 35.75 C 8.414062 35.78125 8.4375 35.804688 8.464844 35.832031 C 8.625 36.007812 8.789062 36.183594 8.960938 36.367188 L 9.128906 36.527344 C 9.265625 36.671875 9.402344 36.8125 9.546875 36.945312 C 9.546875 36.949219 9.613281 37.011719 9.613281 37.011719 L 9.757812 37.144531 C 9.929688 37.308594 10.109375 37.476562 10.246094 37.589844 C 10.253906 37.601562 10.382812 37.710938 10.394531 37.71875 C 10.5625 37.871094 10.730469 38.015625 10.902344 38.15625 L 11.785156 38.851562 C 11.929688 38.960938 12.082031 39.066406 12.253906 39.195312 C 12.3125 39.238281 12.375 39.28125 12.433594 39.320312 C 12.460938 39.339844 12.488281 39.363281 12.507812 39.375 L 13.167969 39.816406 C 13.410156 39.972656 13.648438 40.121094 13.945312 40.296875 L 14.101562 40.386719 C 14.285156 40.496094 14.472656 40.601562 14.648438 40.695312 C 14.753906 40.753906 14.855469 40.804688 14.945312 40.851562 C 15.070312 40.917969 15.207031 40.992188 15.417969 41.09375 C 15.433594 41.105469 15.582031 41.175781 15.601562 41.183594 C 15.808594 41.289062 16.019531 41.386719 16.285156 41.503906 C 16.285156 41.507812 16.375 41.546875 16.375 41.546875 C 16.617188 41.652344 16.855469 41.753906 17.167969 41.878906 C 17.21875 41.898438 17.269531 41.917969 17.277344 41.921875 C 17.5 42.007812 17.734375 42.09375 17.925781 42.160156 C 17.945312 42.167969 18.039062 42.207031 18.058594 42.214844 C 18.3125 42.300781 18.566406 42.382812 18.890625 42.484375 C 18.941406 42.503906 19 42.519531 19.007812 42.519531 L 19.191406 42.578125 C 19.414062 42.648438 19.636719 42.71875 19.878906 42.765625 C 21.585938 43.078125 23.257812 43.238281 24.839844 43.238281 L 24.84375 43.238281 C 38.023438 43.238281 42.21875 32.636719 42.261719 32.527344 C 42.425781 32.097656 42.25 31.617188 41.84375 31.394531 C 41.449219 31.175781 40.945312 31.28125 40.667969 31.644531 C 37.285156 36.09375 30.90625 37.75 23.605469 36.070312 C 23.425781 36.027344 23.246094 35.976562 23.070312 35.921875 L 22.726562 35.820312 C 22.492188 35.746094 22.257812 35.667969 22.035156 35.589844 C 22.03125 35.589844 21.925781 35.550781 21.925781 35.550781 C 21.722656 35.480469 21.523438 35.402344 21.347656 35.332031 L 21.144531 35.253906 C 20.921875 35.164062 20.699219 35.070312 20.484375 34.972656 L 20.359375 34.921875 C 20.164062 34.832031 19.976562 34.746094 19.789062 34.652344 C 19.777344 34.644531 19.628906 34.570312 19.613281 34.566406 C 19.484375 34.503906 19.355469 34.433594 19.191406 34.34375 L 18.441406 33.941406 C 18.363281 33.894531 18.285156 33.847656 18.210938 33.804688 C 17.984375 33.667969 17.75 33.527344 17.519531 33.378906 C 17.464844 33.347656 17.417969 33.308594 17.328125 33.25 C 17.171875 33.148438 17.015625 33.042969 16.789062 32.886719 L 16.699219 32.820312 C 16.546875 32.714844 16.394531 32.597656 16.269531 32.503906 C 16.191406 32.449219 16.109375 32.382812 15.980469 32.285156 C 15.867188 32.195312 15.75 32.109375 15.644531 32.023438 L 15.441406 31.859375 C 15.273438 31.722656 15.117188 31.578125 14.949219 31.4375 C 14.929688 31.417969 14.910156 31.402344 14.886719 31.382812 C 14.703125 31.214844 14.515625 31.046875 14.292969 30.835938 L 13.640625 30.1875 C 13.484375 30.027344 13.324219 29.859375 13.144531 29.664062 C 12.980469 29.480469 12.824219 29.296875 12.609375 29.042969 L 12.222656 28.570312 C 12.175781 28.503906 12.125 28.433594 12.0625 28.363281 C 11.929688 28.183594 11.796875 28.007812 11.664062 27.820312 C 8.085938 22.886719 7.152344 12.597656 9.941406 8.828125 C 10.21875 8.449219 10.171875 7.917969 9.816406 7.597656 C 9.644531 7.4375 9.421875 7.359375 9.203125 7.359375 Z M 9.203125 7.359375 "/>
</g>
</svg>
